<svg fill="none" height="22" viewBox="0 0 140 22" width="140" xmlns="http://www.w3.org/2000/svg"><g fill="#f8f9fa"><path d="m.576172.0537109h21.893028v21.8929891h-21.893028zm2.266158 19.6268891h17.36087v-17.36082h-17.36087zm8.75347-13.98005h2.2661v6.63365c0 2.997-1.6996 4.8063-4.56871 4.8063-2.81437 0-4.47736-1.7728-4.47736-4.8063v-6.63365h2.26616v6.63365c0 1.663.69436 2.6681 2.26598 2.6681 1.51683 0 2.24783-.9503 2.24783-2.6681zm6.5788 0c0 .80411-.5848 1.35231-1.3887 1.35231-.8042 0-1.3889-.5482-1.3889-1.35231 0-.8223.5847-1.3888 1.3889-1.3888.8039 0 1.3887.5665 1.3887 1.3888zm-2.5219 2.43052h2.2661v8.89963h-2.2661zm17.4706 1.3706c0 2.43053-1.6082 3.87423-4.0753 3.87423h-2.0467v3.6548h-2.2661v-11.33015h4.3128c2.5037 0 4.0753 1.46197 4.0753 3.80112zm-2.3026 0c0-1.24265-.7127-1.97368-2.0102-1.97368h-1.8092v4.03871h1.8092c1.2975 0 2.0102-.7309 2.0102-2.06503zm9.923-1.3706h2.2662v8.89963h-2.2662v-1.005c-.603.7127-1.5532 1.1148-2.8873 1.1148-2.4123 0-4.1117-1.9007-4.1117-4.5504 0-2.6315 1.663-4.56869 4.1117-4.56869 1.2975 0 2.2843.45693 2.8873 1.22445zm0 4.45903c0-1.5351-.9136-2.59501-2.3573-2.59501s-2.3392 1.00511-2.3392 2.59501c0 1.4801.8041 2.5583 2.3392 2.5583 1.3889 0 2.3573-1.005 2.3573-2.5583zm7.8034 2.5035h.8954v1.9371h-1.1879c-2.1564 0-3.0885-1.0232-3.0885-3.1248v-3.8559h-1.0598v-1.91893h1.0598v-2.43052h2.2662v2.43052h1.9919v1.91893h-1.9919v3.8741c0 .7859.2375 1.1695 1.1148 1.1695zm10.6723-3.2346v5.1717h-2.266v-4.9158c0-1.3523-.6945-2.22947-2.0286-2.22947-1.334 0-2.1381.91377-2.1381 2.43047v4.7148h-2.2659v-11.87835h2.2659v3.89248c.5664-.67615 1.4619-1.04162 2.6865-1.04162 2.1014 0 3.7462 1.51675 3.7462 3.85579z"/><path d="m60.2236 7.45205c-.875 0-1.4736-.61019-1.4736-1.46108 0-.87887.6189-1.45288 1.4736-1.45288.8668 0 1.465.58607 1.465 1.45288 0 .86295-.602 1.46108-1.465 1.46108zm0-2.65349c-.7327 0-1.1967.46018-1.1967 1.19241 0 .73271.4886 1.18468 1.1967 1.18468.7366 0 1.1924-.47657 1.1924-1.18468 0-.72837-.464-1.19241-1.1924-1.19241zm.3338 1.42057.3092.57787h-.3666l-.2928-.52915h-.232v.52915h-.3294v-1.64438h.6304c.3584 0 .6227.21176.6227.54941 0 .25228-.1341.43172-.3415.5171zm-.5822-.21562h.2605c.1915 0 .3217-.10612.3217-.30148 0-.17896-.1302-.28459-.3217-.28459h-.2605z"/><path d="m72.7791 14.6723h-4.5092l-.8183 2.359h-2.3911l4.1722-11.32915h2.5837l4.1561 11.32915h-2.3911zm-3.8993-1.7971h3.2575l-1.6208-4.74993z"/><path d="m84.6776 11.4789h-2.3909c-.2087-.979-.9308-1.49245-1.9578-1.49245-1.3479 0-2.2466 1.07515-2.2466 2.58355 0 1.5244.9467 2.5835 2.2466 2.5835 1.0591 0 1.7652-.5777 1.9578-1.4923h2.3909c-.3851 2.1984-2.0379 3.466-4.3005 3.466-2.6799 0-4.6056-1.8132-4.6056-4.5572 0-2.80823 1.9257-4.5573 4.6056-4.5573 2.3108 0 3.9154 1.31583 4.3005 3.4662z"/><path d="m94.4353 8.14107v8.88993h-2.2787v-1.0108c-.5936.7059-1.5564 1.107-2.8723 1.107-2.4231 0-4.1241-1.8934-4.1241-4.5412 0-2.63162 1.6689-4.5733 4.1241-4.5733 1.2838 0 2.2626.44926 2.8723 1.21952v-1.09115zm-2.2787 4.44493c0-1.5406-.8985-2.59955-2.3428-2.59955-1.4441 0-2.3429 1.01095-2.3429 2.59955 0 1.4763.8024 2.5515 2.3429 2.5515 1.3802 0 2.3428-1.011 2.3428-2.5515z"/><path d="m104.414 5.15625v11.87465h-2.279v-1.0108c-.593.7059-1.556 1.1071-2.8721 1.1071-2.4232 0-4.1242-1.8935-4.1242-4.5413 0-2.63161 1.669-4.5733 4.1242-4.5733 1.2841 0 2.2621.44927 2.8721 1.21953v-4.07588zm-2.279 7.42965c0-1.5406-.898-2.59954-2.3427-2.59954-1.4441 0-2.3428 1.01094-2.3428 2.59954 0 1.4763.8023 2.5516 2.3428 2.5516 1.3797 0 2.3427-1.0111 2.3427-2.5516z"/><path d="m114.09 13.2761h-6.692c.257 1.3159 1.139 1.9897 2.198 1.9897.963 0 1.717-.4011 1.958-1.2517h2.407c-.449 1.9578-2.198 3.1131-4.284 3.1131-2.825 0-4.558-1.8293-4.558-4.5733 0-2.79213 1.781-4.5412 4.558-4.5412 1.717 0 3.129.73818 3.883 2.038.497.9627.722 2.1662.53 3.2254zm-2.327-1.6528c0-.9308-.899-1.78126-2.086-1.78126-1.38 0-2.038.85046-2.263 1.78126z"/><path d="m129.622 11.8639v5.1671h-2.262v-4.9104c0-1.3479-.69-2.23046-1.974-2.23046-1.332 0-2.054.91466-2.054 2.42316v4.7177h-2.247v-4.9104c0-1.3479-.738-2.23046-1.893-2.23046-1.332 0-2.135.91466-2.135 2.42316v4.7177h-2.262v-8.88993h2.262v.89864c.578-.67405 1.461-1.02701 2.696-1.02701 1.188 0 2.263.56161 2.921 1.54051.594-1.01097 1.765-1.54051 3.273-1.54051 2.022 0 3.675 1.50844 3.675 3.8512z"/><path d="m133.128 16.7738-3.739-8.63318h2.519l2.423 6.03358 2.247-6.03358h2.487l-5.103 12.32398h-2.423z"/></g></svg>